# xmcd
#
# Track frame offsets:
#	150
#	11748
#	24088
#	36930
#	49718
#	63518
#	77930
#	90763
#	100615
#	110513
#	123763
#	136088
#	148268
#	162538
#	177110
#	190915
#	204683
#	218553
#
# Disc length: 3091 seconds
# Revision: 4
# Processed by: cddbd v1.5.2PL0 Copyright (c) Steve Scherf et al.
# Submitted via: dBpowerAMP V12.0
#
DISCID=ed0c1112
DTITLE=Various Artist - The Best Chess Blues
DYEAR=1990
DGENRE=Blues
TTITLE0=Sonny Boy Williamson - Don't Start Me Talking
TTITLE1=Little Walter - Key To The Highway
TTITLE2=Muddy Waters - Hoochie Coochie Man
TTITLE3=John Lee Hooker - Walkin' The Boogie
TTITLE4=Howlin'' Wolf - Smokestack Lightening
TTITLE5=Otis Rush - So Many Roads, So Many Trains
TTITLE6=Jimmy Witherspoon - When The Lights Go Out
TTITLE7=Chuck Berry - Worried Life Blues
TTITLE8=Buddy Guy - First Time I Met The Blues
TTITLE9=Little Walter - Off The Wall
TTITLE10=Otis Spann - I'm Leaving You
TTITLE11=Elmore James - The Sun Is Shining
TTITLE12=Lowell Fulson - Reconsider Baby
TTITLE13=John Lee Hooker - Sugar Mama
TTITLE14=Willie Dixon - Walking The Blues
TTITLE15=Albert King - Howlin' For My Darlin'
TTITLE16=Memphis Slim - Guess I'm A Fool
TTITLE17=Muddy Waters - Got My Mojo Working
EXTD=
EXTT0=
EXTT1=
EXTT2=
EXTT3=
EXTT4=
EXTT5=
EXTT6=
EXTT7=
EXTT8=
EXTT9=
EXTT10=
EXTT11=
EXTT12=
EXTT13=
EXTT14=
EXTT15=
EXTT16=
EXTT17=
PLAYORDER=
